<svg width="314" height="57" viewBox="0 0 314 57" fill="none" xmlns="http://www.w3.org/2000/svg">
<path d="M69.384 10.072H75L81.048 32.392C81.272 33.192 81.64 34.824 82.152 37.288H82.392L83.304 32.392L88.296 10.072H95.4L100.536 32.392C100.76 33.32 101.08 34.952 101.496 37.288H101.736C102.248 34.856 102.616 33.224 102.84 32.392L108.792 10.072H113.928L104.664 43H97.992L92.712 20.536C92.424 19.288 92.088 17.576 91.704 15.4H91.464C91.112 17.768 90.808 19.48 90.552 20.536L85.32 43H78.648L69.384 10.072ZM125.639 43.576C123.559 43.576 121.671 43.064 119.975 42.04C118.311 41.016 117.479 39.16 117.479 36.472C117.479 33.24 118.887 31 121.703 29.752C124.519 28.504 128.551 27.88 133.799 27.88V25.384C133.799 24.008 133.431 22.968 132.695 22.264C131.991 21.528 130.663 21.16 128.711 21.16C126.823 21.16 125.479 21.496 124.679 22.168C123.911 22.84 123.527 23.656 123.527 24.616V25.24H118.727C118.695 25.048 118.679 24.696 118.679 24.184C118.679 21.976 119.607 20.264 121.463 19.048C123.319 17.8 125.799 17.176 128.903 17.176C132.167 17.176 134.615 17.848 136.247 19.192C137.911 20.536 138.743 22.44 138.743 24.904V37.816C138.743 38.392 138.903 38.824 139.223 39.112C139.543 39.368 139.943 39.496 140.423 39.496H142.151V42.808C141.319 43.224 140.183 43.432 138.743 43.432C137.591 43.432 136.615 43.128 135.815 42.52C135.047 41.88 134.535 41.016 134.279 39.928H133.943C133.047 41.08 131.895 41.976 130.487 42.616C129.111 43.256 127.495 43.576 125.639 43.576ZM127.079 39.544C128.967 39.544 130.551 38.984 131.831 37.864C133.143 36.712 133.799 35.144 133.799 33.16V31.624C130.151 31.624 127.367 31.944 125.447 32.584C123.527 33.192 122.567 34.36 122.567 36.088C122.567 37.272 122.935 38.152 123.671 38.728C124.439 39.272 125.575 39.544 127.079 39.544ZM150.583 17.752H154.567L155.047 21.112H155.383C156.279 19.832 157.431 18.856 158.839 18.184C160.279 17.512 161.895 17.176 163.687 17.176C169.031 17.176 171.703 20.072 171.703 25.864V43H166.759V26.488C166.759 24.6 166.327 23.288 165.463 22.552C164.631 21.784 163.399 21.4 161.767 21.4C160.647 21.4 159.607 21.688 158.647 22.264C157.687 22.808 156.919 23.592 156.343 24.616C155.799 25.64 155.527 26.824 155.527 28.168V43H150.583V17.752ZM191.346 43.576C188.146 43.576 185.682 42.504 183.954 40.36C182.226 38.184 181.362 34.856 181.362 30.376C181.362 25.96 182.226 22.664 183.954 20.488C185.682 18.28 188.034 17.176 191.01 17.176C194.498 17.176 197.042 18.328 198.642 20.632H198.93V8.296H203.874V43H199.938L199.458 39.64H199.122C198.322 40.92 197.234 41.896 195.858 42.568C194.514 43.24 193.01 43.576 191.346 43.576ZM192.738 39.4C194.882 39.4 196.45 38.664 197.442 37.192C198.434 35.72 198.93 33.544 198.93 30.664V30.28C198.93 24.328 196.866 21.352 192.738 21.352C190.466 21.352 188.85 22.04 187.89 23.416C186.93 24.76 186.45 27.032 186.45 30.232V30.664C186.45 33.8 186.93 36.04 187.89 37.384C188.85 38.728 190.466 39.4 192.738 39.4ZM225.822 43.576C221.758 43.576 218.734 42.504 216.75 40.36C214.766 38.216 213.774 34.888 213.774 30.376C213.774 25.864 214.766 22.536 216.75 20.392C218.734 18.248 221.758 17.176 225.822 17.176C229.502 17.176 232.254 18.184 234.078 20.2C235.902 22.184 236.814 25.352 236.814 29.704V31.624H218.862C218.99 34.344 219.598 36.36 220.686 37.672C221.806 38.952 223.534 39.592 225.87 39.592C227.694 39.592 229.166 39.16 230.286 38.296C231.406 37.432 231.966 36.104 231.966 34.312H236.814C236.814 37.32 235.79 39.624 233.742 41.224C231.726 42.792 229.086 43.576 225.822 43.576ZM231.678 27.88C231.678 23.4 229.726 21.16 225.822 21.16C223.646 21.16 222.014 21.704 220.926 22.792C219.838 23.848 219.182 25.544 218.958 27.88H231.678ZM246.686 17.752H250.67L251.15 21.64H251.438C252.59 18.664 254.526 17.176 257.246 17.176C258.142 17.176 258.926 17.304 259.598 17.56V22.264H257.822C255.934 22.264 254.43 22.808 253.31 23.896C252.19 24.984 251.63 26.648 251.63 28.888V43H246.686V17.752ZM278.875 43.576C274.811 43.576 271.787 42.504 269.803 40.36C267.819 38.216 266.827 34.888 266.827 30.376C266.827 25.864 267.819 22.536 269.803 20.392C271.787 18.248 274.811 17.176 278.875 17.176C282.555 17.176 285.307 18.184 287.131 20.2C288.955 22.184 289.867 25.352 289.867 29.704V31.624H271.915C272.043 34.344 272.651 36.36 273.739 37.672C274.859 38.952 276.587 39.592 278.923 39.592C280.747 39.592 282.219 39.16 283.339 38.296C284.459 37.432 285.019 36.104 285.019 34.312H289.867C289.867 37.32 288.843 39.624 286.795 41.224C284.779 42.792 282.139 43.576 278.875 43.576ZM284.731 27.88C284.731 23.4 282.779 21.16 278.875 21.16C276.699 21.16 275.067 21.704 273.979 22.792C272.891 23.848 272.235 25.544 272.011 27.88H284.731ZM299.739 17.752H303.723L304.203 21.64H304.491C305.643 18.664 307.579 17.176 310.299 17.176C311.195 17.176 311.979 17.304 312.651 17.56V22.264H310.875C308.987 22.264 307.483 22.808 306.363 23.896C305.243 24.984 304.683 26.648 304.683 28.888V43H299.739V17.752Z" fill="#45C879"/>
<path d="M5.30523 26.6295C15.5377 11.3264 24.1529 6.50451 30.7621 11.8495C37.3713 17.1945 33.0439 23.3405 33.0439 23.3405C33.0439 23.3405 25.4747 37.1751 30.7621 41.4511C37.3713 46.7961 39.4601 50.3929 46.6915 41.4511" stroke="#45C879" stroke-width="6" stroke-linecap="round" stroke-dasharray="5 15"/>
<circle cx="27.5" cy="27.5" r="24.5" stroke="#45C879" stroke-width="4"/>
</svg>
