<svg width="132" height="51" viewBox="0 0 132 51" fill="none" xmlns="http://www.w3.org/2000/svg">
<path d="M0.192 16.536H3L6.024 27.696C6.136 28.096 6.32 28.912 6.576 30.144H6.696L7.152 27.696L9.648 16.536H13.2L15.768 27.696C15.88 28.16 16.04 28.976 16.248 30.144H16.368C16.624 28.928 16.808 28.112 16.92 27.696L19.896 16.536H22.464L17.832 33H14.496L11.856 21.768C11.712 21.144 11.544 20.288 11.352 19.2H11.232C11.056 20.384 10.904 21.24 10.776 21.768L8.16 33H4.824L0.192 16.536ZM28.3194 33.288C27.2794 33.288 26.3354 33.032 25.4874 32.52C24.6554 32.008 24.2394 31.08 24.2394 29.736C24.2394 28.12 24.9434 27 26.3514 26.376C27.7594 25.752 29.7754 25.44 32.3994 25.44V24.192C32.3994 23.504 32.2154 22.984 31.8474 22.632C31.4954 22.264 30.8314 22.08 29.8554 22.08C28.9114 22.08 28.2394 22.248 27.8394 22.584C27.4554 22.92 27.2634 23.328 27.2634 23.808V24.12H24.8634C24.8474 24.024 24.8394 23.848 24.8394 23.592C24.8394 22.488 25.3034 21.632 26.2314 21.024C27.1594 20.4 28.3994 20.088 29.9514 20.088C31.5834 20.088 32.8074 20.424 33.6234 21.096C34.4554 21.768 34.8714 22.72 34.8714 23.952V30.408C34.8714 30.696 34.9514 30.912 35.1114 31.056C35.2714 31.184 35.4714 31.248 35.7114 31.248H36.5754V32.904C36.1594 33.112 35.5914 33.216 34.8714 33.216C34.2954 33.216 33.8074 33.064 33.4074 32.76C33.0234 32.44 32.7674 32.008 32.6394 31.464H32.4714C32.0234 32.04 31.4474 32.488 30.7434 32.808C30.0554 33.128 29.2474 33.288 28.3194 33.288ZM29.0394 31.272C29.9834 31.272 30.7754 30.992 31.4154 30.432C32.0714 29.856 32.3994 29.072 32.3994 28.08V27.312C30.5754 27.312 29.1834 27.472 28.2234 27.792C27.2634 28.096 26.7834 28.68 26.7834 29.544C26.7834 30.136 26.9674 30.576 27.3354 30.864C27.7194 31.136 28.2874 31.272 29.0394 31.272ZM40.7914 20.376H42.7834L43.0234 22.056H43.1914C43.6394 21.416 44.2154 20.928 44.9194 20.592C45.6394 20.256 46.4474 20.088 47.3434 20.088C50.0154 20.088 51.3514 21.536 51.3514 24.432V33H48.8794V24.744C48.8794 23.8 48.6634 23.144 48.2314 22.776C47.8154 22.392 47.1994 22.2 46.3834 22.2C45.8234 22.2 45.3034 22.344 44.8234 22.632C44.3434 22.904 43.9594 23.296 43.6714 23.808C43.3994 24.32 43.2634 24.912 43.2634 25.584V33H40.7914V20.376ZM61.1732 33.288C59.5732 33.288 58.3412 32.752 57.4772 31.68C56.6132 30.592 56.1812 28.928 56.1812 26.688C56.1812 24.48 56.6132 22.832 57.4772 21.744C58.3412 20.64 59.5172 20.088 61.0052 20.088C62.7492 20.088 64.0212 20.664 64.8212 21.816H64.9652V15.648H67.4372V33H65.4692L65.2292 31.32H65.0612C64.6612 31.96 64.1172 32.448 63.4292 32.784C62.7572 33.12 62.0052 33.288 61.1732 33.288ZM61.8692 31.2C62.9412 31.2 63.7252 30.832 64.2212 30.096C64.7172 29.36 64.9652 28.272 64.9652 26.832V26.64C64.9652 23.664 63.9332 22.176 61.8692 22.176C60.7332 22.176 59.9252 22.52 59.4452 23.208C58.9652 23.88 58.7252 25.016 58.7252 26.616V26.832C58.7252 28.4 58.9652 29.52 59.4452 30.192C59.9252 30.864 60.7332 31.2 61.8692 31.2ZM78.411 33.288C76.379 33.288 74.867 32.752 73.875 31.68C72.883 30.608 72.387 28.944 72.387 26.688C72.387 24.432 72.883 22.768 73.875 21.696C74.867 20.624 76.379 20.088 78.411 20.088C80.251 20.088 81.627 20.592 82.539 21.6C83.451 22.592 83.907 24.176 83.907 26.352V27.312H74.931C74.995 28.672 75.299 29.68 75.843 30.336C76.403 30.976 77.267 31.296 78.435 31.296C79.347 31.296 80.083 31.08 80.643 30.648C81.203 30.216 81.483 29.552 81.483 28.656H83.907C83.907 30.16 83.395 31.312 82.371 32.112C81.363 32.896 80.043 33.288 78.411 33.288ZM81.339 25.44C81.339 23.2 80.363 22.08 78.411 22.08C77.323 22.08 76.507 22.352 75.963 22.896C75.419 23.424 75.091 24.272 74.979 25.44H81.339ZM88.8429 20.376H90.8349L91.0749 22.32H91.2189C91.7949 20.832 92.7629 20.088 94.1229 20.088C94.5709 20.088 94.9629 20.152 95.2989 20.28V22.632H94.4109C93.4669 22.632 92.7149 22.904 92.1549 23.448C91.5949 23.992 91.3149 24.824 91.3149 25.944V33H88.8429V20.376ZM104.938 33.288C102.906 33.288 101.394 32.752 100.402 31.68C99.4096 30.608 98.9136 28.944 98.9136 26.688C98.9136 24.432 99.4096 22.768 100.402 21.696C101.394 20.624 102.906 20.088 104.938 20.088C106.778 20.088 108.154 20.592 109.066 21.6C109.978 22.592 110.434 24.176 110.434 26.352V27.312H101.458C101.522 28.672 101.826 29.68 102.37 30.336C102.93 30.976 103.794 31.296 104.962 31.296C105.874 31.296 106.61 31.08 107.17 30.648C107.73 30.216 108.01 29.552 108.01 28.656H110.434C110.434 30.16 109.922 31.312 108.898 32.112C107.89 32.896 106.57 33.288 104.938 33.288ZM107.866 25.44C107.866 23.2 106.89 22.08 104.938 22.08C103.85 22.08 103.034 22.352 102.49 22.896C101.946 23.424 101.618 24.272 101.506 25.44H107.866ZM115.37 20.376H117.362L117.602 22.32H117.746C118.322 20.832 119.29 20.088 120.65 20.088C121.098 20.088 121.49 20.152 121.826 20.28V22.632H120.938C119.994 22.632 119.242 22.904 118.682 23.448C118.122 23.992 117.842 24.824 117.842 25.944V33H115.37V20.376Z" fill="#45C879"/>
</svg>
